<svg width="64" height="65" viewBox="0 0 64 65" fill="none" xmlns="http://www.w3.org/2000/svg">
<rect y="0.0820312" width="64" height="64" rx="18.5774" fill="#EFF0F6"/>
<path opacity="0.4" d="M30.1253 17.7575C31.1603 16.8725 32.8553 16.8725 33.9053 17.7575L36.2753 19.7975C36.7253 20.1875 37.5653 20.5025 38.1653 20.5025H40.7153C42.3053 20.5025 43.6103 21.8075 43.6103 23.3975V25.9475C43.6103 26.5325 43.9253 27.3875 44.3153 27.8375L46.3553 30.2075C47.2403 31.2425 47.2403 32.9375 46.3553 33.9875L44.3153 36.3575C43.9253 36.8075 43.6103 37.6475 43.6103 38.2475V40.7975C43.6103 42.3875 42.3053 43.6925 40.7153 43.6925H38.1653C37.5803 43.6925 36.7253 44.0075 36.2753 44.3975L33.9053 46.4375C32.8703 47.3225 31.1753 47.3225 30.1253 46.4375L27.7553 44.3975C27.3053 44.0075 26.4653 43.6925 25.8653 43.6925H23.2703C21.6803 43.6925 20.3753 42.3875 20.3753 40.7975V38.2325C20.3753 37.6475 20.0603 36.8075 19.6853 36.3575L17.6603 33.9725C16.7903 32.9375 16.7903 31.2575 17.6603 30.2225L19.6853 27.8375C20.0603 27.3875 20.3753 26.5475 20.3753 25.9625V23.3825C20.3753 21.7925 21.6803 20.4875 23.2703 20.4875H25.8653C26.4503 20.4875 27.3053 20.1725 27.7553 19.7825L30.1253 17.7575Z" fill="#3E395F"/>
<path d="M30.1809 36.8389C29.8809 36.8389 29.5959 36.7189 29.3859 36.5089L25.7559 32.8789C25.3209 32.4439 25.3209 31.7239 25.7559 31.2889C26.1909 30.8539 26.9109 30.8539 27.3459 31.2889L30.1809 34.1239L36.6309 27.6739C37.0659 27.2389 37.7859 27.2389 38.2209 27.6739C38.6559 28.1089 38.6559 28.8289 38.2209 29.2639L30.9759 36.5089C30.7659 36.7189 30.4809 36.8389 30.1809 36.8389Z" fill="#3E395F"/>
</svg>
