<svg width="95" height="94" viewBox="0 0 95 94" fill="none" xmlns="http://www.w3.org/2000/svg">
<rect x="0.652344" y="0.496094" width="93.3581" height="93.3581" rx="27.1085" fill="#DEF3FF"/>
<path opacity="0.4" d="M34.616 30.9123L58.6693 22.8856C69.4693 19.2856 75.336 25.179 71.7627 35.979L63.736 60.0323C58.3493 76.219 49.496 76.219 44.1093 60.0323L41.736 52.8856L34.5893 50.5123C18.4293 45.1523 18.4293 36.3256 34.616 30.9123Z" fill="#46BCFF"/>
<path d="M47.9844 46.0246L58.1444 35.8379L47.9844 46.0246Z" fill="#46BCFF"/>
<path d="M47.9777 48.0296C47.471 48.0296 46.9644 47.8429 46.5644 47.4429C45.791 46.6696 45.791 45.3896 46.5644 44.6163L56.6977 34.4296C57.471 33.6563 58.751 33.6563 59.5244 34.4296C60.2977 35.2029 60.2977 36.4829 59.5244 37.2563L49.391 47.4429C48.991 47.8163 48.4844 48.0296 47.9777 48.0296Z" fill="#46BCFF"/>
</svg>
