<svg width="64" height="65" viewBox="0 0 64 65" fill="none" xmlns="http://www.w3.org/2000/svg">
<rect y="0.0820312" width="64" height="64" rx="18.5774" fill="#FFF1D7"/>
<path d="M35.1975 31.09C35.7825 28.63 33.6375 26.4849 31.1775 27.0699C30.0225 27.3549 29.0775 28.2999 28.7925 29.4549C28.2075 31.9149 30.3525 34.0599 32.8125 33.4749C33.9825 33.1899 34.9275 32.245 35.1975 31.09Z" fill="#FFC147"/>
<path opacity="0.4" d="M23.0314 41.037C22.7614 41.037 22.4764 40.9321 22.2664 40.7371C19.3564 38.0371 17.6914 34.227 17.6914 30.267C17.6914 22.377 24.1114 15.957 32.0014 15.957C39.8914 15.957 46.3114 22.377 46.3114 30.267C46.3114 34.257 44.7064 37.947 41.7964 40.692C41.3464 41.112 40.6264 41.0971 40.2064 40.6471C39.7864 40.1971 39.8014 39.4771 40.2514 39.0571C42.7114 36.7471 44.0614 33.642 44.0614 30.282C44.0614 23.637 38.6464 18.222 32.0014 18.222C25.3564 18.222 19.9414 23.637 19.9414 30.282C19.9414 33.672 21.3064 36.792 23.7964 39.102C24.2464 39.522 24.2764 40.242 23.8564 40.692C23.6314 40.917 23.3314 41.037 23.0314 41.037Z" fill="#FFC147"/>
<path opacity="0.4" d="M37.9973 37.028C37.7273 37.028 37.4423 36.9229 37.2323 36.7279C36.7823 36.3079 36.7523 35.5879 37.1873 35.1379C38.4323 33.8179 39.1223 32.078 39.1223 30.278C39.1223 26.348 35.9273 23.168 32.0123 23.168C28.0973 23.168 24.9023 26.363 24.9023 30.278C24.9023 32.093 25.5923 33.8179 26.8373 35.1379C27.2573 35.5879 27.2423 36.3079 26.7923 36.7279C26.3423 37.1629 25.6223 37.133 25.2023 36.683C23.5673 34.943 22.6523 32.663 22.6523 30.278C22.6523 25.118 26.8523 20.918 32.0123 20.918C37.1723 20.918 41.3723 25.118 41.3723 30.278C41.3723 32.663 40.4723 34.943 38.8223 36.683C38.5973 36.908 38.2973 37.028 37.9973 37.028Z" fill="#FFC147"/>
<path d="M29.453 39.0739L27.293 41.759C25.583 43.904 27.098 47.0689 29.843 47.0689H34.148C36.893 47.0689 38.423 43.889 36.698 41.759L34.538 39.0739C33.248 37.4389 30.758 37.4389 29.453 39.0739Z" fill="#FFC147"/>
</svg>
