<svg width="94" height="94" viewBox="0 0 94 94" fill="none" xmlns="http://www.w3.org/2000/svg">
<rect x="0.320312" y="0.496094" width="93.3581" height="93.3581" rx="27.1085" fill="#F4E5FF"/>
<path opacity="0.4" d="M33.2735 67.5496C35.4602 65.2029 38.7935 65.3896 40.7135 67.9496L43.4068 71.5496C45.5668 74.4029 49.0602 74.4029 51.2202 71.5496L53.9135 67.9496C55.8335 65.3896 59.1668 65.2029 61.3535 67.5496C66.1002 72.6163 69.9668 70.9363 69.9668 63.8429V33.7896C69.9935 23.0429 67.4868 20.3496 57.4068 20.3496H37.2468C27.1668 20.3496 24.6602 23.0429 24.6602 33.7896V63.8163C24.6602 70.9363 28.5535 72.5896 33.2735 67.5496Z" fill="#B04DFF"/>
<path d="M58.6081 46.3496H43.9414C42.8481 46.3496 41.9414 45.4429 41.9414 44.3496C41.9414 43.2563 42.8481 42.3496 43.9414 42.3496H58.6081C59.7014 42.3496 60.6081 43.2563 60.6081 44.3496C60.6081 45.4429 59.7014 46.3496 58.6081 46.3496Z" fill="#B04DFF"/>
<path d="M58.6081 35.6816H43.9414C42.8481 35.6816 41.9414 34.775 41.9414 33.6816C41.9414 32.5883 42.8481 31.6816 43.9414 31.6816H58.6081C59.7014 31.6816 60.6081 32.5883 60.6081 33.6816C60.6081 34.775 59.7014 35.6816 58.6081 35.6816Z" fill="#B04DFF"/>
<path d="M36.0768 36.349C34.6102 36.349 33.4102 35.149 33.4102 33.6823C33.4102 32.2156 34.6102 31.0156 36.0768 31.0156C37.5435 31.0156 38.7435 32.2156 38.7435 33.6823C38.7435 35.149 37.5435 36.349 36.0768 36.349Z" fill="#B04DFF"/>
<path d="M36.0768 47.015C34.6102 47.015 33.4102 45.815 33.4102 44.3483C33.4102 42.8816 34.6102 41.6816 36.0768 41.6816C37.5435 41.6816 38.7435 42.8816 38.7435 44.3483C38.7435 45.815 37.5435 47.015 36.0768 47.015Z" fill="#B04DFF"/>
</svg>
