<svg width="95" height="94" viewBox="0 0 95 94" fill="none" xmlns="http://www.w3.org/2000/svg">
<rect x="0.984375" y="0.533203" width="93.3581" height="93.3581" rx="27.1085" fill="#EFF0F6"/>
<path opacity="0.4" d="M39.9909 20.3867C33.0042 20.3867 27.3242 26.0667 27.3242 33.0534C27.3242 39.9067 32.6842 45.4534 39.6709 45.6934C39.8842 45.6667 40.0976 45.6667 40.2576 45.6934C40.3109 45.6934 40.3376 45.6934 40.3909 45.6934C40.4176 45.6934 40.4176 45.6934 40.4442 45.6934C47.2709 45.4534 52.6309 39.9067 52.6576 33.0534C52.6576 26.0667 46.9776 20.3867 39.9909 20.3867Z" fill="#3E395F"/>
<path d="M53.5427 52.7825C46.1027 47.8225 33.9693 47.8225 26.476 52.7825C23.0893 55.0492 21.2227 58.1158 21.2227 61.3958C21.2227 64.6758 23.0893 67.7158 26.4493 69.9558C30.1827 72.4625 35.0893 73.7158 39.996 73.7158C44.9027 73.7158 49.8093 72.4625 53.5427 69.9558C56.9027 67.6892 58.7693 64.6492 58.7693 61.3425C58.7427 58.0625 56.9027 55.0225 53.5427 52.7825Z" fill="#3E395F"/>
<path opacity="0.4" d="M69.2972 34.6211C69.7239 39.7945 66.0439 44.3278 60.9505 44.9411C60.9239 44.9411 60.9239 44.9411 60.8972 44.9411H60.8172C60.6572 44.9411 60.4972 44.9411 60.3639 44.9945C57.7772 45.1278 55.4039 44.3011 53.6172 42.7811C56.3639 40.3278 57.9372 36.6478 57.6172 32.6478C57.4305 30.4878 56.6839 28.5145 55.5639 26.8345C56.5772 26.3278 57.7505 26.0078 58.9505 25.9011C64.1772 25.4478 68.8439 29.3411 69.2972 34.6211Z" fill="#3E395F"/>
<path d="M74.6263 59.2944C74.413 61.8811 72.7596 64.1211 69.9863 65.6411C67.3196 67.1078 63.9596 67.8011 60.6263 67.7211C62.5463 65.9878 63.6663 63.8278 63.8796 61.5344C64.1463 58.2278 62.573 55.0544 59.4263 52.5211C57.6396 51.1078 55.5596 49.9878 53.293 49.1611C59.1863 47.4544 66.5996 48.6011 71.1596 52.2811C73.613 54.2544 74.8663 56.7344 74.6263 59.2944Z" fill="#3E395F"/>
</svg>
