<svg width="64" height="65" viewBox="0 0 64 65" fill="none" xmlns="http://www.w3.org/2000/svg">
<rect y="0.675781" width="64" height="64" rx="18.5774" fill="#FFF1D7"/>
<path d="M36.0151 46.6445H27.9572C27.774 46.6445 27.5938 46.6914 27.4338 46.7807C27.2738 46.8699 27.1393 46.9986 27.043 47.1545C26.9468 47.3104 26.892 47.4883 26.8839 47.6714C26.8758 47.8544 26.9146 48.0365 26.9967 48.2003L27.7187 49.6421C28.0731 50.3565 28.6204 50.9575 29.2986 51.3771C29.9768 51.7967 30.7589 52.0182 31.5564 52.0165H32.4159C33.2126 52.0194 33.9943 51.7996 34.6727 51.3819C35.3512 50.9643 35.8995 50.3654 36.2558 49.6528L36.9778 48.211C37.06 48.047 37.0988 47.8648 37.0906 47.6816C37.0824 47.4983 37.0274 47.3203 36.9309 47.1643C36.8344 47.0084 36.6996 46.8797 36.5393 46.7906C36.379 46.7015 36.1985 46.6549 36.0151 46.6553V46.6445Z" fill="#FFC147"/>
<path d="M31.9894 13.3359C29.0199 13.3403 26.1292 14.291 23.7368 16.0499C21.3443 17.8089 19.5747 20.2845 18.6849 23.1175C17.795 25.9504 17.8312 28.9933 18.7881 31.8043C19.7451 34.6153 21.5731 37.0481 24.0066 38.7497C24.1492 38.8486 24.2658 38.9806 24.3462 39.1344C24.4267 39.2882 24.4687 39.4593 24.4686 39.6328V41.2702C24.4686 41.8401 24.695 42.3867 25.098 42.7896C25.501 43.1926 26.0475 43.419 26.6174 43.419H37.3613C37.9312 43.419 38.4778 43.1926 38.8808 42.7896C39.2837 42.3867 39.5101 41.8401 39.5101 41.2702V39.6307C39.5101 39.4571 39.5521 39.2861 39.6325 39.1323C39.713 38.9785 39.8295 38.8465 39.9721 38.7475C42.4118 37.0496 44.2457 34.6171 45.2067 31.8043C46.1676 28.9915 46.2054 25.9454 45.3146 23.1096C44.4238 20.2738 42.6508 17.7966 40.254 16.0386C37.8572 14.2806 34.9618 13.3337 31.9894 13.3359Z" fill="#FFC147"/>
</svg>
