<svg width="64" height="65" viewBox="0 0 64 65" fill="none" xmlns="http://www.w3.org/2000/svg">
<rect y="0.675781" width="64" height="64" rx="18.5774" fill="#FFE5E9"/>
<path d="M43.3713 37.1315C42.8736 37.6138 42.6449 38.3114 42.7583 38.9955L44.4666 48.4499C44.6107 49.2512 44.2725 50.0621 43.6019 50.5252C42.9447 51.0056 42.0703 51.0633 41.3536 50.6789L32.8427 46.24C32.5468 46.0824 32.2182 45.9979 31.8819 45.9883H31.3612C31.1805 46.0152 31.0037 46.0728 30.8423 46.1612L22.3295 50.6213C21.9087 50.8327 21.4321 50.9076 20.9652 50.8327C19.8276 50.6175 19.0686 49.5337 19.2549 48.3903L20.9652 38.9359C21.0786 38.2461 20.8499 37.5447 20.3522 37.0547L13.4132 30.329C12.8329 29.7659 12.6311 28.9204 12.8963 28.1576C13.1538 27.3966 13.811 26.8412 14.6046 26.7163L24.1551 25.3308C24.8815 25.2559 25.5194 24.8139 25.8461 24.1606L30.0545 15.5325C30.1544 15.3403 30.2831 15.1636 30.4388 15.0137L30.6117 14.8792C30.702 14.7792 30.8058 14.6966 30.9211 14.6293L31.1306 14.5525L31.4572 14.418H32.2662C32.9888 14.4929 33.6248 14.9253 33.9573 15.5709L38.2213 24.1606C38.5288 24.789 39.1264 25.2252 39.8163 25.3308L49.3667 26.7163C50.1738 26.8316 50.8483 27.3889 51.1154 28.1576C51.3671 28.9281 51.15 29.7736 50.5581 30.329L43.3713 37.1315Z" fill="#FF5F85"/>
</svg>
