<svg width="94" height="94" viewBox="0 0 94 94" fill="none" xmlns="http://www.w3.org/2000/svg">
<rect x="0.320312" y="0.478516" width="93.3581" height="93.3581" rx="27.1085" fill="#FFF1D7"/>
<path d="M59.9967 24.492V20.332C59.9967 19.2387 59.09 18.332 57.9967 18.332C56.9034 18.332 55.9967 19.2387 55.9967 20.332V24.332H38.6634V20.332C38.6634 19.2387 37.7567 18.332 36.6634 18.332C35.57 18.332 34.6634 19.2387 34.6634 20.332V24.492C27.4634 25.1587 23.97 29.452 23.4367 35.8254C23.3834 36.5987 24.0234 37.2387 24.77 37.2387H69.89C70.6634 37.2387 71.3034 36.572 71.2234 35.8254C70.69 29.452 67.1967 25.1587 59.9967 24.492Z" fill="#FFC147"/>
<path opacity="0.4" d="M71.3281 43.9004V48.5404C71.3281 50.167 69.8881 51.4204 68.2881 51.1537C67.5415 51.0471 66.7681 50.967 65.9948 50.967C57.9148 50.967 51.3281 57.5537 51.3281 65.6337C51.3281 66.8604 51.8081 68.5671 52.3148 70.1138C52.9015 71.8471 51.6215 73.6337 49.7815 73.6337H36.6615C27.3281 73.6337 23.3281 68.3004 23.3281 60.3004V43.8737C23.3281 42.407 24.5281 41.207 25.9948 41.207H68.6615C70.1281 41.2337 71.3281 42.4337 71.3281 43.9004Z" fill="#FFC147"/>
<path d="M65.9948 54.998C60.1015 54.998 55.3281 59.7714 55.3281 65.6647C55.3281 67.6647 55.8881 69.558 56.8748 71.158C58.7148 74.2514 62.1015 76.3314 65.9948 76.3314C69.8881 76.3314 73.2748 74.2514 75.1148 71.158C76.1015 69.558 76.6615 67.6647 76.6615 65.6647C76.6615 59.7714 71.8881 54.998 65.9948 54.998ZM71.5148 64.5181L65.8348 69.7714C65.4615 70.1181 64.9548 70.3047 64.4748 70.3047C63.9681 70.3047 63.4615 70.118 63.0615 69.718L60.4215 67.078C59.6481 66.3047 59.6481 65.0247 60.4215 64.2514C61.1948 63.4781 62.4748 63.4781 63.2481 64.2514L64.5281 65.5314L68.7948 61.5847C69.5948 60.8381 70.8748 60.8914 71.6215 61.6914C72.3681 62.4914 72.3148 63.7447 71.5148 64.5181Z" fill="#FFC147"/>
<path d="M37.9948 54.9998C37.3015 54.9998 36.6081 54.7064 36.1015 54.2264C35.6215 53.7197 35.3281 53.0264 35.3281 52.3331C35.3281 51.6398 35.6215 50.9465 36.1015 50.4398C36.7148 49.8265 37.6481 49.5331 38.5281 49.7197C38.6881 49.7464 38.8481 49.7997 39.0081 49.8797C39.1681 49.9331 39.3281 50.0131 39.4881 50.1198C39.6215 50.2265 39.7548 50.3331 39.8881 50.4398C40.3681 50.9465 40.6615 51.6398 40.6615 52.3331C40.6615 53.0264 40.3681 53.7197 39.8881 54.2264C39.7548 54.3331 39.6215 54.4397 39.4881 54.5464C39.3281 54.6531 39.1681 54.7331 39.0081 54.7865C38.8481 54.8665 38.6881 54.9198 38.5281 54.9465C38.3415 54.9731 38.1548 54.9998 37.9948 54.9998Z" fill="#FFC147"/>
<path d="M47.3268 54.9953C46.6335 54.9953 45.9402 54.7019 45.4335 54.2219C44.9535 53.7153 44.6602 53.022 44.6602 52.3286C44.6602 51.6353 44.9535 50.942 45.4335 50.4353C46.4468 49.4486 48.2335 49.4486 49.2202 50.4353C49.7002 50.942 49.9935 51.6353 49.9935 52.3286C49.9935 53.022 49.7002 53.7153 49.2202 54.2219C48.7135 54.7019 48.0202 54.9953 47.3268 54.9953Z" fill="#FFC147"/>
<path d="M37.9948 64.3284C37.3015 64.3284 36.6081 64.0351 36.1015 63.5551C35.6215 63.0484 35.3281 62.3551 35.3281 61.6618C35.3281 60.9684 35.6215 60.2751 36.1015 59.7685C36.3681 59.5285 36.6348 59.3417 36.9815 59.2084C37.9681 58.7817 39.1415 59.0218 39.8881 59.7685C40.3681 60.2751 40.6615 60.9684 40.6615 61.6618C40.6615 62.3551 40.3681 63.0484 39.8881 63.5551C39.3815 64.0351 38.6881 64.3284 37.9948 64.3284Z" fill="#FFC147"/>
</svg>
