<svg width="64" height="65" viewBox="0 0 64 65" fill="none" xmlns="http://www.w3.org/2000/svg">
<rect y="0.0820312" width="64" height="64" rx="18.5774" fill="#E7EBFF"/>
<path opacity="0.4" d="M45.3628 30.7625C45.3628 38.0975 40.0378 44.9675 32.7628 46.9775C32.2678 47.1125 31.7278 47.1125 31.2328 46.9775C23.9578 44.9675 18.6328 38.0975 18.6328 30.7625V24.1775C18.6328 22.9475 19.5628 21.5525 20.7178 21.0875L29.0728 17.6675C30.9478 16.9025 33.0628 16.9025 34.9378 17.6675L43.2928 21.0875C44.4328 21.5525 45.3778 22.9475 45.3778 24.1775L45.3628 30.7625Z" fill="#596AFF"/>
<path d="M35.75 29.832C35.75 27.762 34.07 26.082 32 26.082C29.93 26.082 28.25 27.762 28.25 29.832C28.25 31.512 29.36 32.907 30.875 33.387V37.332C30.875 37.947 31.385 38.457 32 38.457C32.615 38.457 33.125 37.947 33.125 37.332V33.387C34.64 32.907 35.75 31.512 35.75 29.832Z" fill="#596AFF"/>
</svg>
