<svg width="94" height="94" viewBox="0 0 94 94" fill="none" xmlns="http://www.w3.org/2000/svg">
<rect x="-0.0078125" y="0.478516" width="93.3581" height="93.3581" rx="27.1085" fill="#E6F0F7"/>
<path opacity="0.4" d="M58.1759 20.334H35.8293C26.1226 20.334 20.3359 26.1207 20.3359 35.8273V58.174C20.3359 67.8807 26.1226 73.6673 35.8293 73.6673H58.1759C67.8826 73.6673 73.6693 67.8807 73.6693 58.174V35.8273C73.6693 26.1207 67.8826 20.334 58.1759 20.334Z" fill="#086CAE"/>
<path d="M63.8242 38.6562C63.8242 39.7496 62.9442 40.6562 61.8242 40.6562H47.8242C46.7309 40.6562 45.8242 39.7496 45.8242 38.6562C45.8242 37.5629 46.7309 36.6562 47.8242 36.6562H61.8242C62.9442 36.6562 63.8242 37.5629 63.8242 38.6562Z" fill="#086CAE"/>
<path d="M41.5868 36.0629L35.5868 42.0629C35.1868 42.4629 34.6802 42.6496 34.1735 42.6496C33.6668 42.6496 33.1335 42.4629 32.7602 42.0629L30.7602 40.0629C29.9602 39.2896 29.9602 38.0096 30.7602 37.2363C31.5335 36.4629 32.7868 36.4629 33.5868 37.2363L34.1735 37.8229L38.7602 33.2363C39.5335 32.4629 40.7868 32.4629 41.5868 33.2363C42.3602 34.0096 42.3602 35.2896 41.5868 36.0629Z" fill="#086CAE"/>
<path d="M63.8242 57.3242C63.8242 58.4176 62.9442 59.3242 61.8242 59.3242H47.8242C46.7309 59.3242 45.8242 58.4176 45.8242 57.3242C45.8242 56.2309 46.7309 55.3242 47.8242 55.3242H61.8242C62.9442 55.3242 63.8242 56.2309 63.8242 57.3242Z" fill="#086CAE"/>
<path d="M41.5868 54.7309L35.5868 60.7309C35.1868 61.1309 34.6802 61.3176 34.1735 61.3176C33.6668 61.3176 33.1335 61.1309 32.7602 60.7309L30.7602 58.7309C29.9602 57.9576 29.9602 56.6776 30.7602 55.9042C31.5335 55.1309 32.7868 55.1309 33.5868 55.9042L34.1735 56.4909L38.7602 51.9042C39.5335 51.1309 40.7868 51.1309 41.5868 51.9042C42.3602 52.6776 42.3602 53.9576 41.5868 54.7309Z" fill="#086CAE"/>
</svg>
