<svg width="20" height="21" viewBox="0 0 20 21" fill="none" xmlns="http://www.w3.org/2000/svg">
<path d="M7.08464 16.0358H6.66797C3.33464 16.0358 1.66797 15.2025 1.66797 11.0358V6.86914C1.66797 3.53581 3.33464 1.86914 6.66797 1.86914H13.3346C16.668 1.86914 18.3346 3.53581 18.3346 6.86914V11.0358C18.3346 14.3691 16.668 16.0358 13.3346 16.0358H12.918C12.6596 16.0358 12.4096 16.1608 12.2513 16.3691L11.0013 18.0358C10.4513 18.7691 9.5513 18.7691 9.0013 18.0358L7.7513 16.3691C7.61797 16.1858 7.30964 16.0358 7.08464 16.0358Z" stroke="#C1C2C3" stroke-width="1.25" stroke-miterlimit="10" stroke-linecap="round" stroke-linejoin="round"/>
<path d="M5.83203 6.86914H14.1654" stroke="#C1C2C3" stroke-width="1.25" stroke-linecap="round" stroke-linejoin="round"/>
<path d="M5.83203 11.0371H10.832" stroke="#C1C2C3" stroke-width="1.25" stroke-linecap="round" stroke-linejoin="round"/>
</svg>
