<svg width="94" height="94" viewBox="0 0 94 94" fill="none" xmlns="http://www.w3.org/2000/svg">
<rect x="0.320312" y="0.515625" width="93.3581" height="93.3581" rx="27.1085" fill="#FFE5E9"/>
<path d="M47.5188 38.9039C47.4121 38.9039 47.2521 38.9039 47.1188 38.9039C44.3188 38.7972 42.1055 36.5306 42.1055 33.7039C42.1055 30.8239 44.4255 28.5039 47.3055 28.5039C50.1855 28.5039 52.5055 30.8506 52.5055 33.7039C52.5321 36.5306 50.3188 38.8239 47.5188 38.9039Z" fill="#FF5F85"/>
<path d="M39.9959 46.9316C36.4493 49.305 36.4493 53.1716 39.9959 55.545C44.0226 58.2383 50.6359 58.2383 54.6626 55.545C58.2093 53.1716 58.2093 49.305 54.6626 46.9316C50.6359 44.265 44.0493 44.265 39.9959 46.9316Z" fill="#FF5F85"/>
<path opacity="0.4" d="M63.3281 20.3691H31.3281C26.9015 20.3691 23.3281 23.9158 23.3281 28.2891V57.3825C23.3281 61.7558 26.9015 65.3025 31.3281 65.3025H33.3548C35.4881 65.3025 37.5148 66.1291 39.0081 67.6225L43.5681 72.1291C45.6481 74.1825 49.0348 74.1825 51.1148 72.1291L55.6748 67.6225C57.1681 66.1291 59.2215 65.3025 61.3281 65.3025H63.3281C67.7548 65.3025 71.3281 61.7558 71.3281 57.3825V28.2891C71.3281 23.9158 67.7548 20.3691 63.3281 20.3691ZM47.3281 28.5025C50.2081 28.5025 52.5281 30.8491 52.5281 33.7025C52.5281 36.5291 50.2881 38.7958 47.5148 38.9025C47.4081 38.9025 47.2481 38.9025 47.1148 38.9025C44.3148 38.7958 42.1015 36.5291 42.1015 33.7025C42.1281 30.8491 44.4481 28.5025 47.3281 28.5025ZM54.6615 55.5425C50.6348 58.2358 44.0215 58.2358 39.9948 55.5425C36.4481 53.1958 36.4481 49.3025 39.9948 46.9291C44.0481 44.2358 50.6615 44.2358 54.6615 46.9291C58.2081 49.3025 58.2081 53.1691 54.6615 55.5425Z" fill="#FF5F85"/>
</svg>
