<svg width="20" height="21" viewBox="0 0 20 21" fill="none" xmlns="http://www.w3.org/2000/svg">
<path d="M10.1302 9.26081C10.0469 9.25247 9.94687 9.25247 9.85521 9.26081C7.87187 9.19414 6.29688 7.56914 6.29688 5.56914C6.29687 3.52747 7.94687 1.86914 9.99687 1.86914C12.0385 1.86914 13.6969 3.52747 13.6969 5.56914C13.6885 7.56914 12.1135 9.19414 10.1302 9.26081Z" stroke="#C1C2C3" stroke-width="1.25" stroke-linecap="round" stroke-linejoin="round"/>
<path d="M5.96563 12.3371C3.94896 13.6871 3.94896 15.8871 5.96563 17.2288C8.25729 18.7621 12.0156 18.7621 14.3073 17.2288C16.324 15.8788 16.324 13.6788 14.3073 12.3371C12.024 10.8121 8.26562 10.8121 5.96563 12.3371Z" stroke="#C1C2C3" stroke-width="1.25" stroke-linecap="round" stroke-linejoin="round"/>
</svg>
