<svg width="94" height="94" viewBox="0 0 94 94" fill="none" xmlns="http://www.w3.org/2000/svg">
<rect x="-0.0078125" y="0.496094" width="93.3581" height="93.3581" rx="27.1085" fill="#FFE7DA"/>
<path opacity="0.4" d="M71.6654 39.4154C65.5054 29.7354 56.492 24.1621 46.9987 24.1621C42.252 24.1621 37.6387 25.5488 33.4254 28.1354C29.212 30.7488 25.4254 34.5621 22.332 39.4154C19.6654 43.6021 19.6654 50.4021 22.332 54.5888C28.492 64.2954 37.5054 69.8421 46.9987 69.8421C51.7454 69.8421 56.3587 68.4554 60.572 65.8688C64.7854 63.2554 68.572 59.4421 71.6654 54.5888C74.332 50.4288 74.332 43.6021 71.6654 39.4154ZM46.9987 57.7888C41.0254 57.7888 36.2254 52.9621 36.2254 47.0154C36.2254 41.0688 41.0254 36.2421 46.9987 36.2421C52.972 36.2421 57.772 41.0688 57.772 47.0154C57.772 52.9621 52.972 57.7888 46.9987 57.7888Z" fill="#FF9054"/>
<path d="M46.9945 39.3906C42.8079 39.3906 39.3945 42.804 39.3945 47.0173C39.3945 51.204 42.8079 54.6173 46.9945 54.6173C51.1812 54.6173 54.6212 51.204 54.6212 47.0173C54.6212 42.8306 51.1812 39.3906 46.9945 39.3906Z" fill="#FF9054"/>
</svg>
