<svg width="95" height="94" viewBox="0 0 95 94" fill="none" xmlns="http://www.w3.org/2000/svg">
<rect x="0.65625" y="0.533203" width="93.3581" height="93.3581" rx="27.1085" fill="#E8F8E8"/>
<path opacity="0.4" d="M58.9669 24.7812H36.3536C29.7669 24.7812 24.4336 30.1412 24.4336 36.7013V61.7946C24.4336 68.3546 29.7936 73.7146 36.3536 73.7146H58.9403C65.5269 73.7146 70.8603 68.3546 70.8603 61.7946V36.7013C70.8869 30.1146 65.5269 24.7812 58.9669 24.7812Z" fill="#66DD63"/>
<path d="M53.9366 20.3867H41.4033C38.6299 20.3867 36.3633 22.6267 36.3633 25.4001V27.9067C36.3633 30.6801 38.6033 32.9201 41.3766 32.9201H53.9366C56.7099 32.9201 58.9499 30.6801 58.9499 27.9067V25.4001C58.9766 22.6267 56.7099 20.3867 53.9366 20.3867Z" fill="#66DD63"/>
<path d="M55.6628 49.584H36.9961C35.9028 49.584 34.9961 48.6773 34.9961 47.584C34.9961 46.4907 35.9028 45.584 36.9961 45.584H55.6628C56.7561 45.584 57.6628 46.4907 57.6628 47.584C57.6628 48.6773 56.7561 49.584 55.6628 49.584Z" fill="#66DD63"/>
<path d="M48.6761 60.25H36.9961C35.9028 60.25 34.9961 59.3433 34.9961 58.25C34.9961 57.1567 35.9028 56.25 36.9961 56.25H48.6761C49.7694 56.25 50.6761 57.1567 50.6761 58.25C50.6761 59.3433 49.7694 60.25 48.6761 60.25Z" fill="#66DD63"/>
</svg>
