<svg width="64" height="65" viewBox="0 0 64 65" fill="none" xmlns="http://www.w3.org/2000/svg">
<rect y="0.0820312" width="64" height="64" rx="18.5774" fill="#FFE5E9"/>
<path d="M44 35.457C45.864 35.457 47.375 33.946 47.375 32.082C47.375 30.2181 45.864 28.707 44 28.707C42.136 28.707 40.625 30.2181 40.625 32.082C40.625 33.946 42.136 35.457 44 35.457Z" fill="#FF5F85"/>
<path d="M44 23.457C45.864 23.457 47.375 21.946 47.375 20.082C47.375 18.2181 45.864 16.707 44 16.707C42.136 16.707 40.625 18.2181 40.625 20.082C40.625 21.946 42.136 23.457 44 23.457Z" fill="#FF5F85"/>
<path d="M44 47.457C45.864 47.457 47.375 45.946 47.375 44.082C47.375 42.2181 45.864 40.707 44 40.707C42.136 40.707 40.625 42.2181 40.625 44.082C40.625 45.946 42.136 47.457 44 47.457Z" fill="#FF5F85"/>
<path d="M20 35.457C21.864 35.457 23.375 33.946 23.375 32.082C23.375 30.2181 21.864 28.707 20 28.707C18.136 28.707 16.625 30.2181 16.625 32.082C16.625 33.946 18.136 35.457 20 35.457Z" fill="#FF5F85"/>
<path opacity="0.4" d="M42.5 33.207C43.115 33.207 43.625 32.697 43.625 32.082C43.625 31.467 43.115 30.957 42.5 30.957H31.625V24.582C31.625 22.212 32.63 21.207 35 21.207H42.5C43.115 21.207 43.625 20.697 43.625 20.082C43.625 19.467 43.115 18.957 42.5 18.957H35C31.37 18.957 29.375 20.952 29.375 24.582V30.957H21.5C20.885 30.957 20.375 31.467 20.375 32.082C20.375 32.697 20.885 33.207 21.5 33.207H29.375V39.582C29.375 43.212 31.37 45.207 35 45.207H42.5C43.115 45.207 43.625 44.697 43.625 44.082C43.625 43.467 43.115 42.957 42.5 42.957H35C32.63 42.957 31.625 41.952 31.625 39.582V33.207H42.5Z" fill="#FF5F85"/>
</svg>
