<svg width="64" height="65" viewBox="0 0 64 65" fill="none" xmlns="http://www.w3.org/2000/svg">
<rect y="0.0820312" width="64" height="64" rx="18.5774" fill="#FFE7DA"/>
<path d="M38 26.082H26V38.082H38V26.082Z" fill="#FF9054"/>
<path opacity="0.4" d="M21.5 47.082C23.975 47.082 26 45.057 26 42.582V38.082H21.5C19.025 38.082 17 40.107 17 42.582C17 45.057 19.025 47.082 21.5 47.082Z" fill="#FF9054"/>
<path opacity="0.4" d="M21.5 26.082H26V21.582C26 19.107 23.975 17.082 21.5 17.082C19.025 17.082 17 19.107 17 21.582C17 24.057 19.025 26.082 21.5 26.082Z" fill="#FF9054"/>
<path opacity="0.4" d="M38 26.082H42.5C44.975 26.082 47 24.057 47 21.582C47 19.107 44.975 17.082 42.5 17.082C40.025 17.082 38 19.107 38 21.582V26.082Z" fill="#FF9054"/>
<path opacity="0.4" d="M42.5 47.082C44.975 47.082 47 45.057 47 42.582C47 40.107 44.975 38.082 42.5 38.082H38V42.582C38 45.057 40.025 47.082 42.5 47.082Z" fill="#FF9054"/>
</svg>
