<svg width="95" height="94" viewBox="0 0 95 94" fill="none" xmlns="http://www.w3.org/2000/svg">
<rect x="0.652344" y="0.478516" width="93.3581" height="93.3581" rx="27.1085" fill="#E7F7F5"/>
<path opacity="0.4" d="M71.6602 33.6654V60.332C71.6602 68.332 67.6602 73.6654 58.3268 73.6654H36.9935C27.6602 73.6654 23.6602 68.332 23.6602 60.332V33.6654C23.6602 25.6654 27.6602 20.332 36.9935 20.332H58.3268C67.6602 20.332 71.6602 25.6654 71.6602 33.6654Z" fill="#13AC9F"/>
<path d="M64.9909 39.6647H59.6576C55.6042 39.6647 52.3242 36.3847 52.3242 32.3314V26.998C52.3242 25.9047 53.2309 24.998 54.3242 24.998C55.4176 24.998 56.3242 25.9047 56.3242 26.998V32.3314C56.3242 34.1714 57.8176 35.6647 59.6576 35.6647H64.9909C66.0842 35.6647 66.9909 36.5714 66.9909 37.6647C66.9909 38.758 66.0842 39.6647 64.9909 39.6647Z" fill="#13AC9F"/>
<path d="M47.6628 51.6641H36.9961C35.9028 51.6641 34.9961 50.7574 34.9961 49.6641C34.9961 48.5707 35.9028 47.6641 36.9961 47.6641H47.6628C48.7561 47.6641 49.6628 48.5707 49.6628 49.6641C49.6628 50.7574 48.7561 51.6641 47.6628 51.6641Z" fill="#13AC9F"/>
<path d="M58.3294 62.332H36.9961C35.9028 62.332 34.9961 61.4254 34.9961 60.332C34.9961 59.2387 35.9028 58.332 36.9961 58.332H58.3294C59.4228 58.332 60.3294 59.2387 60.3294 60.332C60.3294 61.4254 59.4228 62.332 58.3294 62.332Z" fill="#13AC9F"/>
</svg>
