<svg width="95" height="94" viewBox="0 0 95 94" fill="none" xmlns="http://www.w3.org/2000/svg">
<rect x="0.652344" y="0.515625" width="93.3581" height="93.3581" rx="27.1085" fill="#CEC2FF"/>
<path d="M68.9905 66.3987H44.8039C43.6039 66.3987 42.6172 65.4121 42.6172 64.2121C42.6172 63.0121 43.6039 62.0254 44.8039 62.0254H68.9905C70.1905 62.0254 71.1772 63.0121 71.1772 64.2121C71.1772 65.4387 70.1905 66.3987 68.9905 66.3987Z" fill="#8364FF"/>
<path d="M68.9905 49.6175H44.8039C43.6039 49.6175 42.6172 48.6308 42.6172 47.4308C42.6172 46.2308 43.6039 45.2441 44.8039 45.2441H68.9905C70.1905 45.2441 71.1772 46.2308 71.1772 47.4308C71.1772 48.6308 70.1905 49.6175 68.9905 49.6175Z" fill="#8364FF"/>
<path d="M68.9905 32.8245H44.8039C43.6039 32.8245 42.6172 31.8378 42.6172 30.6378C42.6172 29.4378 43.6039 28.4512 44.8039 28.4512H68.9905C70.1905 28.4512 71.1772 29.4378 71.1772 30.6378C71.1772 31.8378 70.1905 32.8245 68.9905 32.8245Z" fill="#8364FF"/>
<path opacity="0.4" d="M28.754 36.4528C28.1673 36.4528 27.6073 36.2128 27.2073 35.8128L24.7806 33.3862C23.9273 32.5328 23.9273 31.1462 24.7806 30.2928C25.634 29.4395 27.0206 29.4395 27.874 30.2928L28.754 31.1728L34.4606 25.4662C35.314 24.6128 36.7006 24.6128 37.554 25.4662C38.4073 26.3195 38.4073 27.7062 37.554 28.5595L30.3006 35.8128C29.874 36.2128 29.3406 36.4528 28.754 36.4528Z" fill="#8364FF"/>
<path opacity="0.4" d="M28.754 53.2458C28.194 53.2458 27.634 53.0325 27.2073 52.6058L24.7806 50.1791C23.9273 49.3258 23.9273 47.9391 24.7806 47.0858C25.634 46.2325 27.0206 46.2325 27.874 47.0858L28.754 47.9658L34.4606 42.2591C35.314 41.4058 36.7006 41.4058 37.554 42.2591C38.4073 43.1125 38.4073 44.4991 37.554 45.3525L30.3006 52.6058C29.874 53.0325 29.314 53.2458 28.754 53.2458Z" fill="#8364FF"/>
<path opacity="0.4" d="M28.754 69.2458C28.194 69.2458 27.634 69.0325 27.2073 68.6058L24.7806 66.1791C23.9273 65.3258 23.9273 63.9391 24.7806 63.0858C25.634 62.2325 27.0206 62.2325 27.874 63.0858L28.754 63.9658L34.4606 58.2591C35.314 57.4058 36.7006 57.4058 37.554 58.2591C38.4073 59.1125 38.4073 60.4991 37.554 61.3525L30.3006 68.6058C29.874 69.0325 29.314 69.2458 28.754 69.2458Z" fill="#8364FF"/>
</svg>
