<svg width="64" height="65" viewBox="0 0 64 65" fill="none" xmlns="http://www.w3.org/2000/svg">
<rect y="0.0820312" width="64" height="64" rx="18.5774" fill="#E6F0F7"/>
<path opacity="0.4" d="M36.5 20.082H27.5C23.36 20.082 20 23.442 20 27.582V36.582C20 40.722 23.36 44.082 27.5 44.082H36.5C40.64 44.082 44 40.722 44 36.582V27.582C44 23.442 40.64 20.082 36.5 20.082ZM39.89 35.472C39.89 37.962 37.88 39.972 35.39 39.972H28.61C26.12 39.972 24.11 37.962 24.11 35.472V28.692C24.11 26.202 26.12 24.192 28.61 24.192H35.375C37.865 24.192 39.875 26.202 39.875 28.692V35.472H39.89Z" fill="#086CAE"/>
<path d="M27.5859 18.207V20.082H27.4959C26.7459 20.082 26.0259 20.187 25.3359 20.397V18.207C25.3359 17.592 25.8309 17.082 26.4609 17.082C27.0759 17.082 27.5859 17.592 27.5859 18.207Z" fill="#086CAE"/>
<path d="M33.125 18.207V20.082H30.875V18.207C30.875 17.592 31.385 17.082 32 17.082C32.615 17.082 33.125 17.592 33.125 18.207Z" fill="#086CAE"/>
<path d="M38.6719 18.207V20.397C37.9819 20.187 37.2469 20.082 36.4969 20.082H36.4219V18.207C36.4219 17.592 36.9319 17.082 37.5469 17.082C38.1619 17.082 38.6719 17.592 38.6719 18.207Z" fill="#086CAE"/>
<path d="M46.9986 26.5332C46.9986 27.1632 46.5036 27.6582 45.8736 27.6582H43.9986V27.5832C43.9986 26.8332 43.8936 26.0982 43.6836 25.4082H45.8736C46.5036 25.4082 46.9986 25.9182 46.9986 26.5332Z" fill="#086CAE"/>
<path d="M47 32.082C47 32.697 46.505 33.207 45.875 33.207H44V30.957H45.875C46.505 30.957 47 31.452 47 32.082Z" fill="#086CAE"/>
<path d="M46.9986 37.6309C46.9986 38.2459 46.5036 38.7559 45.8736 38.7559H43.6836C43.8936 38.0659 43.9986 37.3309 43.9986 36.5809V36.5059H45.8736C46.5036 36.5059 46.9986 37.0009 46.9986 37.6309Z" fill="#086CAE"/>
<path d="M38.6719 43.7656V45.9556C38.6719 46.5706 38.1619 47.0806 37.5469 47.0806C36.9319 47.0806 36.4219 46.5706 36.4219 45.9556V44.0806H36.4969C37.2469 44.0806 37.9819 43.9756 38.6719 43.7656Z" fill="#086CAE"/>
<path d="M33.1406 44.082V45.957C33.1406 46.572 32.6306 47.082 32.0156 47.082C31.3856 47.082 30.8906 46.572 30.8906 45.957V44.082H33.1406Z" fill="#086CAE"/>
<path d="M27.5859 44.0806V45.9556C27.5859 46.5706 27.0759 47.0806 26.4609 47.0806C25.8309 47.0806 25.3359 46.5706 25.3359 45.9556V43.7656C26.0259 43.9756 26.7459 44.0806 27.4959 44.0806H27.5859Z" fill="#086CAE"/>
<path d="M20.315 25.4082C20.105 26.0982 20 26.8332 20 27.5832V27.6582H18.125C17.51 27.6582 17 27.1632 17 26.5332C17 25.9182 17.51 25.4082 18.125 25.4082H20.315V25.4082Z" fill="#086CAE"/>
<path d="M20 30.957V33.207H18.125C17.51 33.207 17 32.697 17 32.082C17 31.452 17.51 30.957 18.125 30.957H20Z" fill="#086CAE"/>
<path d="M20.315 38.7559H18.125C17.51 38.7559 17 38.2459 17 37.6309C17 37.0009 17.51 36.5059 18.125 36.5059H20V36.5809C20 37.3309 20.105 38.0659 20.315 38.7559Z" fill="#086CAE"/>
<path d="M39.8894 28.6914V35.4564C39.8894 37.9464 37.8794 39.9564 35.3894 39.9564H28.6094C26.1194 39.9564 24.1094 37.9464 24.1094 35.4564V28.6914C24.1094 26.2014 26.1194 24.1914 28.6094 24.1914H35.3744C37.8644 24.1914 39.8894 26.2164 39.8894 28.6914Z" fill="#086CAE"/>
</svg>
