<svg width="64" height="65" viewBox="0 0 64 65" fill="none" xmlns="http://www.w3.org/2000/svg">
<rect y="0.0820312" width="64" height="64" rx="18.5774" fill="#E7F7F5"/>
<path opacity="0.4" d="M32 47.082C40.2843 47.082 47 40.3663 47 32.082C47 23.7978 40.2843 17.082 32 17.082C23.7157 17.082 17 23.7978 17 32.082C17 40.3663 23.7157 47.082 32 47.082Z" fill="#13AC9F"/>
<path d="M37.5659 37.9796C37.3709 37.9796 37.1759 37.9346 36.9959 37.8146L32.3459 35.0396C31.1909 34.3496 30.3359 32.8346 30.3359 31.4996V25.3496C30.3359 24.7346 30.8459 24.2246 31.4609 24.2246C32.0759 24.2246 32.5859 24.7346 32.5859 25.3496V31.4996C32.5859 32.0396 33.0359 32.8346 33.5009 33.1046L38.1509 35.8796C38.6909 36.1946 38.8559 36.8846 38.5409 37.4246C38.3159 37.7846 37.9409 37.9796 37.5659 37.9796Z" fill="#13AC9F"/>
</svg>
