<svg width="94" height="94" viewBox="0 0 94 94" fill="none" xmlns="http://www.w3.org/2000/svg">
<rect x="-0.0078125" y="0.515625" width="93.3581" height="93.3581" rx="27.1085" fill="#E7EBFF"/>
<path opacity="0.4" d="M20.332 39.0352V36.3685C20.332 29.0085 26.3054 23.0352 33.6654 23.0352H60.332C67.692 23.0352 73.6654 29.0085 73.6654 36.3685V57.7018C73.6654 65.0618 67.692 71.0352 60.332 71.0352H57.6654H33.6654C26.3054 71.0352 20.332 65.0618 20.332 57.7018V39.0352Z" fill="#596AFF"/>
<path d="M58.0432 56.2033C57.0565 56.2033 56.2032 55.4567 56.0698 54.47C54.9232 45.4567 48.3632 38.8967 39.3499 37.75C38.2565 37.6167 37.4832 36.6033 37.6165 35.51C37.7498 34.4167 38.7632 33.6433 39.8565 33.7767C50.7099 35.1633 58.6299 43.0834 60.0432 53.9634C60.1765 55.0567 59.4032 56.07 58.3099 56.2033C58.2299 56.2033 58.1499 56.2033 58.0432 56.2033Z" fill="#596AFF"/>
<path d="M50.8475 58.4979C49.8608 58.4979 49.0075 57.7512 48.8741 56.7645C48.0475 50.4178 43.4341 45.7779 37.0608 44.9512C35.9675 44.8179 35.1941 43.8045 35.3274 42.7112C35.4608 41.6179 36.4741 40.8445 37.5675 40.9778C45.7808 42.0445 51.7808 48.0179 52.8475 56.2579C52.9808 57.3512 52.2074 58.3645 51.1141 58.4979C51.0341 58.4979 50.9275 58.4979 50.8475 58.4979Z" fill="#596AFF"/>
<path d="M42.7069 59.8573C41.7203 59.8573 40.8669 59.1107 40.7336 58.124C40.3869 55.404 38.4136 53.4307 35.6936 53.084C34.6002 52.9507 33.8269 51.9373 33.9603 50.844C34.0936 49.7506 35.1069 48.9773 36.2003 49.1107C40.7069 49.6973 44.1203 53.1107 44.7069 57.6173C44.8403 58.7107 44.0669 59.724 42.9736 59.8573C42.8936 59.8573 42.7869 59.8573 42.7069 59.8573Z" fill="#596AFF"/>
</svg>
